<?xml version="1.0" encoding="UTF-8" standalone="no"?>
<!DOCTYPE svg PUBLIC "-//W3C//DTD SVG 1.1//EN" "http://www.w3.org/Graphics/SVG/1.1/DTD/svg11.dtd">
<svg width="100%" height="100%" viewBox="0 0 1080 1080" version="1.1" xmlns="http://www.w3.org/2000/svg" xmlns:xlink="http://www.w3.org/1999/xlink" xml:space="preserve" xmlns:serif="http://www.serif.com/" style="fill-rule:evenodd;clip-rule:evenodd;stroke-linejoin:round;stroke-miterlimit:2;">
    <g transform="matrix(1.40693,0,0,1.40693,-172.089,-234.447)">
        <path d="M429.398,524.84C429.397,519.691 427.009,514.834 422.932,511.69C390.499,486.725 369.589,447.515 369.589,403.461C369.589,328.103 430.771,266.922 506.129,266.922C581.487,266.922 642.668,328.103 642.668,403.461C642.668,446.008 623.165,484.036 592.619,509.085C586.444,514.174 582.866,521.758 582.866,529.761C582.86,565.549 582.86,662.695 582.86,690.736C582.86,695.051 584.389,699.225 587.175,702.52C591.088,707.162 593.444,713.156 593.444,719.696C593.444,734.436 581.477,746.403 566.737,746.403C551.997,746.403 540.031,734.436 540.031,719.696C540.031,713.106 542.423,707.071 546.385,702.411C549.112,699.219 550.61,695.158 550.61,690.96C550.614,661.948 550.614,555.895 550.614,510.546C550.614,498.687 556.101,487.494 565.476,480.23C588.43,462.49 603.206,434.687 603.206,403.461C603.206,349.883 559.707,306.384 506.129,306.384C452.55,306.384 409.052,349.883 409.052,403.461C409.052,436.286 425.379,465.328 450.348,482.901C457.423,487.854 461.636,495.947 461.636,504.583C461.643,533.051 461.643,594.757 461.643,619.832C461.643,625.722 463.525,631.458 467.013,636.205C470.291,640.635 472.227,646.115 472.227,652.043C472.227,666.783 460.26,678.75 445.52,678.75C430.78,678.75 418.814,666.783 418.814,652.043C418.814,645.954 420.856,640.339 424.292,635.844C427.597,631.502 429.387,626.196 429.387,620.739C429.398,598.534 429.398,545.509 429.398,524.84ZM490.006,433.499C490.006,426.864 487.971,420.388 484.176,414.945C481.177,410.633 479.422,405.394 479.422,399.749C479.422,385.01 491.389,373.043 506.129,373.043C520.868,373.043 532.835,385.01 532.835,399.749C532.835,405.838 530.793,411.454 527.357,415.948C524.052,420.29 522.262,425.596 522.262,431.053C522.251,484.329 522.251,733.696 522.251,778.937C522.252,782.938 523.68,786.807 526.279,789.848C530.381,794.491 532.835,800.597 532.835,807.272C532.835,822.012 520.868,833.979 506.129,833.979C491.389,833.979 479.422,822.012 479.422,807.272C479.422,800.525 481.93,794.358 486.064,789.655C488.565,786.776 489.942,783.09 489.942,779.277C490.006,735.602 490.006,491.683 490.006,433.499Z" style="fill:rgb(0,15,255);"/>
    </g>
</svg>
