<?xml version="1.0" encoding="UTF-8" standalone="no"?>
<!DOCTYPE svg PUBLIC "-//W3C//DTD SVG 1.1//EN" "http://www.w3.org/Graphics/SVG/1.1/DTD/svg11.dtd">
<svg width="100%" height="100%" viewBox="0 0 1080 1080" version="1.1" xmlns="http://www.w3.org/2000/svg" xmlns:xlink="http://www.w3.org/1999/xlink" xml:space="preserve" xmlns:serif="http://www.serif.com/" style="fill-rule:evenodd;clip-rule:evenodd;stroke-linejoin:round;stroke-miterlimit:2;">
    <g transform="matrix(1,0,0,1,32.6407,17.2992)">
        <rect x="-146.776" y="-177.412" width="1308.27" height="1338.29"/>
    </g>
    <g transform="matrix(1.81365,0,0,1.81365,-377.942,-458.326)">
        <path d="M429.398,522.997C429.397,518.942 427.488,515.123 424.244,512.69C391.064,487.777 369.589,448.107 369.589,403.461C369.589,328.103 430.771,266.922 506.129,266.922C581.487,266.922 642.668,328.103 642.668,403.461C642.668,446.88 622.357,485.593 590.727,510.609C585.763,514.551 582.87,520.542 582.87,526.881C582.86,560.628 582.86,665.716 582.86,692.268C582.86,695.775 584.162,699.157 586.513,701.759C590.819,706.499 593.444,712.794 593.444,719.696C593.444,734.436 581.477,746.403 566.737,746.403C551.997,746.403 540.031,734.436 540.031,719.696C540.031,712.75 542.688,706.419 547.042,701.667C549.338,699.148 550.611,695.862 550.611,692.454C550.614,664.931 550.614,549.557 550.614,506.262C550.615,496.693 555.216,487.709 562.981,482.118C587.348,464.485 603.206,435.81 603.206,403.461C603.206,349.883 559.707,306.384 506.129,306.384C452.55,306.384 409.052,349.883 409.052,403.461C409.052,437.222 426.323,466.981 452.505,484.376C458.212,488.185 461.64,494.593 461.64,501.455C461.643,529.018 461.643,597.538 461.643,621.948C461.643,626.827 463.307,631.561 466.361,635.367C470.034,639.932 472.227,645.734 472.227,652.043C472.227,666.783 460.26,678.75 445.52,678.75C430.78,678.75 418.814,666.783 418.814,652.043C418.814,645.587 421.109,639.663 424.929,635.043C427.811,631.571 429.389,627.2 429.389,622.687C429.398,601.17 429.398,542.728 429.398,522.997ZM490.006,431.128C490.006,425.634 488.208,420.29 484.886,415.913C481.455,411.429 479.422,405.825 479.422,399.749C479.422,385.01 491.389,373.043 506.129,373.043C520.868,373.043 532.835,385.01 532.835,399.749C532.835,406.206 530.539,412.13 526.72,416.749C523.838,420.222 522.26,424.593 522.26,429.106C522.251,478.451 522.251,738.737 522.251,780.368C522.251,783.634 523.478,786.782 525.689,789.186C530.141,793.908 532.835,800.278 532.835,807.272C532.835,822.012 520.868,833.979 506.129,833.979C491.389,833.979 479.422,822.012 479.422,807.272C479.422,800.213 482.167,793.789 486.647,789.012C488.768,786.74 489.947,783.749 489.947,780.641C490.006,740.418 490.006,485.278 490.006,431.128Z" style="fill:rgb(0,36,174);"/>
    </g>
</svg>
